<?xml version="1.0" encoding="UTF-8" standalone="no"?>
<svg
   xmlns:dc="http://purl.org/dc/elements/1.1/"
   xmlns:cc="http://creativecommons.org/ns#"
   xmlns:rdf="http://www.w3.org/1999/02/22-rdf-syntax-ns#"
   xmlns:svg="http://www.w3.org/2000/svg"
   xmlns="http://www.w3.org/2000/svg"
   viewBox="0 0 489.07999 291.37332"
   height="291.37332"
   width="489.07999"
   xml:space="preserve"
   id="svg2"
   version="1.1"><metadata
     id="metadata8"><rdf:RDF><cc:Work
         rdf:about=""><dc:format>image/svg+xml</dc:format><dc:type
           rdf:resource="http://purl.org/dc/dcmitype/StillImage" /></cc:Work></rdf:RDF></metadata><defs
     id="defs6" /><g
     transform="matrix(1.3333333,0,0,-1.3333333,0,291.37333)"
     id="g10"><g
       transform="scale(0.1)"
       id="g12"><path
         id="path14"
         style="fill:#231f20;fill-opacity:1;fill-rule:nonzero;stroke:none"
         d="m 1527.66,2055.59 h 176.12 c 0,0 78.18,53.65 168.61,53.65 90.45,0 147.95,-70.62 147.95,-96.04 h 126.92 c 0,0 -15.76,172.14 -254.11,172.14 -238.38,0 -365.49,-129.75 -365.49,-129.75" /><path
         id="path16"
         style="fill:#231f20;fill-opacity:1;fill-rule:nonzero;stroke:none"
         d="m 1473,2013.18 c 0,0 -44.31,-50.89 -59.33,-83.82 h 314.9 v -204.42 l 108.9,69.72 v 132.83 h 64.14 l 63.11,85.69 H 1473" /><path
         id="path18"
         style="fill:#231f20;fill-opacity:1;fill-rule:nonzero;stroke:none"
         d="m 1590.77,1886.95 v -162.01 l 103.61,69.68 v 92.33 h -103.61" /><path
         id="path20"
         style="fill:#231f20;fill-opacity:1;fill-rule:nonzero;stroke:none"
         d="m 1548.33,1883.17 h -146.92 c 0,0 -73.46,-274.51 264.76,-274.51 0,0 127.07,-10.92 290.1,81.37 l 39.59,-54.6 137.55,208.18 H 1871.5 l 41.46,-74.39 c 0,0 -104.6,-86.67 -236.45,-86.67 -131.94,0 -163.94,101.72 -128.18,200.62" /><path
         id="path22"
         style="fill:#231f20;fill-opacity:1;fill-rule:nonzero;stroke:none"
         d="m 903.953,1413.95 2.352,-182.02 -41.032,-0.5 -2.363,181.98 41.043,0.54" /><path
         id="path24"
         style="fill:#231f20;fill-opacity:1;fill-rule:nonzero;stroke:none"
         d="m 993.852,1380.4 -49.161,-0.67 -0.468,34.59 139.907,1.8 0.44,-34.53 -49.68,-0.64 1.92,-147.45 -41.044,-0.53 -1.914,147.43" /><path
         id="path26"
         style="fill:#231f20;fill-opacity:1;fill-rule:nonzero;stroke:none"
         d="m 1175.04,1319.81 0.33,-27.25 -70.73,-0.94 -0.38,27.28 70.78,0.91" /><path
         id="path28"
         style="fill:#231f20;fill-opacity:1;fill-rule:nonzero;stroke:none"
         d="m 1360.71,1246.08 c -12.64,-4.47 -36.61,-10.75 -60.64,-11.05 -33.2,-0.42 -57.35,7.62 -74.31,23.32 -16.67,15.72 -26.17,39.37 -26.5,66.08 -0.51,60.53 43.04,95.64 102.75,96.43 23.46,0.31 41.61,-4.06 50.59,-8 l -8.22,-33.32 c -10.04,4.46 -22.25,7.55 -42.22,7.28 -34.3,-0.43 -60.23,-20.21 -59.7,-59.64 0.46,-37.84 24.51,-59.37 58.27,-58.91 9.17,0.12 16.72,1.29 19.94,2.66 l -0.49,38.35 -28.09,-0.37 -0.42,32.14 67.78,0.89 1.26,-95.86" /><path
         id="path30"
         style="fill:#231f20;fill-opacity:1;fill-rule:nonzero;stroke:none"
         d="m 1453.47,1238.74 -0.97,74.54 -58.91,106.71 47.26,0.64 18.93,-43.53 c 5.85,-13.15 10.02,-22.8 14.48,-34.64 h 0.55 c 3.91,11.39 8.09,22 13.31,35.02 l 17.83,43.97 46.16,0.62 -58.56,-106.91 0.98,-75.88 -41.06,-0.54" /><path
         id="path32"
         style="fill:#231f20;fill-opacity:1;fill-rule:nonzero;stroke:none"
         d="m 1745.62,1312.06 c -1.1,21.87 -2.25,48.05 -2.62,74.8 l -0.52,-0.04 c -5.64,-23.29 -12.89,-49.3 -19.61,-70.74 l -21.23,-71.31 -32.13,-0.41 -20.35,69.96 c -6.23,21.54 -12.49,47.09 -17.39,71.09 h -0.57 c -0.47,-24.61 -1.18,-52.68 -1.96,-75.41 l -2.63,-69.17 -38.08,-0.48 9.27,182.15 54.8,0.71 18.61,-60.8 c 6.23,-20.7 11.92,-43.34 16.25,-64.58 h 1.06 c 4.6,21.1 10.5,44.97 16.45,65.57 l 18.39,60.73 54.01,0.73 12.09,-181.89 -40,-0.51 -3.84,69.6" /><path
         id="path34"
         style="fill:#231f20;fill-opacity:1;fill-rule:nonzero;stroke:none"
         d="m 1839.44,1243.46 -2.36,182.01 48.07,0.6 38.69,-66.19 c 11.03,-19.02 21.85,-41.6 30.51,-62 l 0.5,0.03 c -2.71,23.98 -3.84,48.54 -4.22,76.06 l -0.68,52.95 37.79,0.5 2.4,-182 -43.22,-0.58 -39.79,69.7 c -11.07,19.56 -23.51,42.65 -32.45,63.87 h -1.06 c 1.66,-24.29 2.54,-49.93 2.93,-79.64 l 0.69,-54.82 -37.8,-0.49" /><path
         id="path36"
         style="fill:#231f20;fill-opacity:1;fill-rule:nonzero;stroke:none"
         d="m 2131.46,1324.6 -11.84,38.47 c -3.12,10.75 -6.52,24.49 -9.38,35 h -0.8 c -2.28,-10.84 -5.07,-24.67 -7.65,-35.24 l -10.55,-38.75 z m -45.78,-31.39 -12.08,-46.89 -42.65,-0.53 53.24,182.71 53.75,0.7 59.06,-181.29 -44.28,-0.54 -14.64,46.52 -52.4,-0.68" /><path
         id="path38"
         style="fill:#231f20;fill-opacity:1;fill-rule:nonzero;stroke:none"
         d="m 2240.52,1290.5 c 10.88,-5.52 28.23,-10.97 45.8,-10.79 18.89,0.28 28.77,8.21 28.63,20.38 -0.16,11.07 -8.89,17.71 -30.86,24.98 -30.38,10.41 -50.58,26.89 -50.93,53.64 -0.38,31.04 25.51,54.86 68.17,55.43 20.79,0.26 35.7,-3.59 46.55,-8.57 l -8.76,-33.03 c -7.05,3.39 -20.36,8.36 -37.93,8.12 -17.8,-0.22 -26.34,-8.71 -26.22,-17.9 0.16,-11.62 10.22,-16.6 34.1,-25.49 32.29,-11.46 47.35,-28.04 47.71,-53.93 0.38,-30.5 -22.51,-56.74 -72.47,-57.38 -20.79,-0.3 -41.37,5.12 -51.72,10.67 l 7.93,33.87" /><path
         id="path40"
         style="fill:#231f20;fill-opacity:1;fill-rule:nonzero;stroke:none"
         d="m 2442.9,1432.86 2.34,-182.01 -41.01,-0.52 -2.38,181.99 41.05,0.54" /><path
         id="path42"
         style="fill:#231f20;fill-opacity:1;fill-rule:nonzero;stroke:none"
         d="m 2606.63,1329.77 -66.95,-0.89 0.53,-43.17 74.79,0.97 0.45,-33.78 -115.86,-1.51 -2.36,182.02 112.08,1.45 0.43,-33.76 -71.04,-0.9 0.51,-37.81 66.95,0.87 0.47,-33.49" /><path
         id="path44"
         style="fill:#231f20;fill-opacity:1;fill-rule:nonzero;stroke:none"
         d="m 2695.4,1401.28 -49.17,-0.65 -0.42,34.57 139.86,1.8 0.47,-34.54 -49.69,-0.66 1.9,-147.43 -41.05,-0.53 -1.9,147.44" /><path
         id="path46"
         style="fill:#231f20;fill-opacity:1;fill-rule:nonzero;stroke:none"
         d="m 3661.14,84.6016 c -8.57,23.5974 -24.29,39.7694 -52.81,46.0004 -12.83,2.5 -21.45,3.75 -34.26,0 -25.64,-8.692 -28.51,-32.3637 -29.96,-55.9809 0,-21.1328 4.32,-36.0508 20,-50.9922 19.96,-18.66015 44.22,-29.84765 71.31,-19.94921 35.68,11.23831 38.57,49.80861 25.72,80.92191" /><path
         id="path48"
         style="fill:#f6841d;fill-opacity:1;fill-rule:nonzero;stroke:none"
         d="m 2080.99,790.719 c -30.71,4.621 -55.73,0.09 -73.62,-31.078 -8.83,-15.371 -112.58,-257.129 -143.66,-303.2 -47.88,157.809 -100.1,226.52 -170.19,235.879 -29.01,3.879 -87.74,15.27 -87.81,-36.41 -0.05,-34.609 123.92,-278.301 149.86,-331.601 41.51,-85.289 57.65,-118.829 102.83,-118.829 41.86,0 114.38,100.18 167.6,201.25 l 120.57,223.481 c 11.55,23.059 18.66,46.969 18.66,70.918 0,49.641 -21.63,80.172 -84.24,89.59" /><path
         id="path50"
         style="fill:#231f20;fill-opacity:1;fill-rule:nonzero;stroke:none"
         d="M 385.875,388.43 C 312.777,599.27 223.434,448.102 186.992,360.309 180.098,341.199 55.1406,671.711 3.44922,531.969 -23.9141,458 119.176,286.789 166.699,243.102 c 64.989,-34.571 126.328,94.796 135.883,141.207 99.758,-460.0981 468.98,584.921 83.293,4.121" /><path
         id="path52"
         style="fill:#231f20;fill-opacity:1;fill-rule:nonzero;stroke:none"
         d="m 747.102,479.898 c -25.661,-8.929 -50.633,-4.136 -55.79,10.661 -5.144,14.8 11.485,34.043 37.141,42.972 25.652,8.918 50.629,4.141 55.781,-10.672 5.145,-14.8 -11.48,-34.039 -37.132,-42.961 z m 108.171,54.313 C 842.77,557.98 816.504,571.32 789.434,581.52 581.031,660.012 591.523,405.461 591.523,405.461 c -0.5,-35.82 14.848,-85.941 14.848,-85.941 61.25,-197.5 200.195,-82.282 235.152,-6.559 15,32.5 5,127.5 -72.5,17.5 -84.507,-119.941 -92.738,89.238 -92.738,89.238 233.149,9.121 178.988,114.512 178.988,114.512" /><path
         id="path54"
         style="fill:#231f20;fill-opacity:1;fill-rule:nonzero;stroke:none"
         d="m 2399.8,554.309 c -35.24,-12.25 -69.52,-5.68 -76.61,14.652 -7.07,20.328 15.78,46.758 51,59 35.23,12.25 69.53,5.687 76.6,-14.652 7.07,-20.329 -15.76,-46.731 -50.99,-59 z m 148.55,74.589 c -17.17,32.641 -53.24,50.961 -90.41,64.961 -286.18,107.77 -271.78,-241.757 -271.78,-241.757 -0.68,-49.184 20.39,-118.012 20.39,-118.012 84.11,-271.2111 274.91,-113 322.91,-9 20.61,44.629 6.88,175.082 -99.55,24.019 -116.05,-164.699 -127.35,122.539 -127.35,122.539 320.16,12.52 245.79,157.25 245.79,157.25" /><path
         id="path56"
         style="fill:#00a9da;fill-opacity:1;fill-rule:nonzero;stroke:none"
         d="m 1120.27,745.91 c 1.67,121.039 -31.53,169.34 -72.54,135.27 -37.46,-31.129 -18.71,-549.84 -18.71,-549.84 -6.65,-229.391 59.15,-210.102 85,-181.801 29.59,32.41 18.75,279.891 18.75,279.891 0.02,175.84 -12.5,316.48 -12.5,316.48" /><path
         id="path58"
         style="fill:#231f20;fill-opacity:1;fill-rule:nonzero;stroke:none"
         d="m 3637.76,815.461 c -24.04,40.57 -198.71,46.969 -198.71,46.969 -160.38,5.789 -337.24,16.531 -337.24,16.531 -131.55,11.5 -179.17,9.82 -164.05,-71 11.89,-63.473 164.82,-83.832 261.76,-90.352 -19.87,-178.25 5.74,-514.648 5.74,-514.648 6.25,-223.7305 67.28,-202.199281 127.5,-183.7305 57.41,17.5976 31.31,261.2495 31.31,261.2495 -9.18,151.27 -7.56,327.5 -7.56,327.5 -1.54,39.5 -2.71,73.461 -5.24,102.051 l 73.99,-4.57 c 244.11,-16.293 236.57,69.437 212.5,110" /><path
         id="path60"
         style="fill:#ec018a;fill-opacity:1;fill-rule:nonzero;stroke:none"
         d="m 1381.52,352.961 c -22.5,1.25 -62.5,55.719 -62.5,110 0,60.41 42.68,120 83.75,120 41.08,0 57.5,-47.09 57.5,-107.5 0,-60.41 -37.74,-124.762 -78.75,-122.5 z m -9.37,318.75 c -95.62,0 -173.13,-93.449 -173.13,-208.75 0,-115.27 77.51,-208.75 173.13,-208.75 95.61,0 219.37,129.73 219.37,245 0,115.301 -123.76,172.5 -219.37,172.5" /><path
         id="path62"
         style="fill:#231f20;fill-opacity:1;fill-rule:nonzero;stroke:none"
         d="m 2884.4,606.281 c -14.45,171.367 -20.54,210.367 -90.95,228.149 -12.4,3.121 -55.42,11.308 -53.89,-29.282 9.36,-248.668 24.08,-545.628 24.08,-545.628 6.17,-99.04 22.12,-126.559 79.94,-126.559 16.14,0 21.37,0.039 40.94,5.019 46.21,10.239 21.13,199.258 21.13,199.258 l -21.25,269.043" /></g></g></svg>